<?xml version="1.0" encoding="UTF-8" standalone="no"?>
<!DOCTYPE svg PUBLIC "-//W3C//DTD SVG 1.1//EN" "http://www.w3.org/Graphics/SVG/1.1/DTD/svg11.dtd">
<svg width="100%" height="100%" viewBox="0 0 1389 676" version="1.1" xmlns="http://www.w3.org/2000/svg" xmlns:xlink="http://www.w3.org/1999/xlink" xml:space="preserve" xmlns:serif="http://www.serif.com/" style="fill-rule:evenodd;clip-rule:evenodd;stroke-linejoin:round;stroke-miterlimit:2;">
    <g id="Artboard1" transform="matrix(1.01686,0,0,0.926985,-206.282,-85.5359)">
        <rect x="202.861" y="92.273" width="1365.57" height="728.526" style="fill:none;"/>
        <g transform="matrix(-0.983419,0,0,1.07877,1756.6,-74.6039)">
            <path d="M847.761,719.038C840.837,719.088 833.915,719.539 826.992,719.815C804.789,724.731 782.01,720.778 759.925,723.676C746.043,725.498 732.389,725.153 718.65,726.041C711.67,726.491 709.223,730.836 712.43,737.613C715.053,743.157 717.535,749.271 721.762,753.417C726.448,758.014 729.076,762.762 730.788,768.946C731.83,772.712 735.411,775.852 738.093,779.073C743.889,786.032 748.651,793.583 751.611,802.162C753.476,807.569 755.314,813.076 749.932,817.818C749.29,818.384 749.444,820.095 748.817,820.385C747.728,820.889 746.317,820.699 745.04,820.8C744.977,816.999 742.015,818.126 740,817.979C734.58,817.582 729.079,817.812 723.735,816.989C716.763,815.916 710.546,812.087 703.202,811.586C699.186,811.312 695.448,807.991 691.426,806.46C687.675,805.034 683.697,804.216 679.851,803.027C673.402,801.035 666.833,799.321 660.59,796.807C655.462,794.743 650.787,791.58 645.815,789.097C639.573,785.98 632.902,783.591 627.015,779.927C618.777,774.799 611.024,768.875 603.196,763.114C598.757,759.847 594.479,756.342 590.317,752.727C586.289,749.229 582.188,745.728 578.687,741.731C573.629,735.957 567.691,733.743 559.999,733.831C532.005,734.15 503.994,734.423 476.017,733.665C468.793,733.47 461.575,730.178 453.988,731.019C446.823,731.814 440.13,729.402 433.217,728.326C424.918,727.034 416.249,728.344 407.773,727.898C395.4,727.247 383.01,726.425 370.721,724.91C363.911,724.07 357.223,721.905 350.613,719.898C345.871,718.459 341.444,715.979 336.702,714.535C331.674,713.004 326.41,712.267 321.305,710.963C316.156,709.647 311.075,708.069 305.971,706.58C305.514,706.447 305.112,705.926 304.685,705.926C301.945,705.925 298.205,707.149 296.7,705.817C294.43,703.807 293.081,702.184 289.8,703.414C289.055,703.693 287.495,701.801 286.147,701.375C281.375,699.138 276.669,696.745 271.81,694.718C268.443,693.313 264.936,692.014 261.364,691.377C255.823,690.389 250.972,688.362 246.182,685.307C240.852,681.907 234.632,679.936 229.051,676.884C218.26,670.983 209.762,662.585 203.593,651.927C202.989,650.883 203.031,649.381 203.025,648.09C202.981,638.758 202.625,629.405 203.124,620.099C203.518,612.735 207.213,606.599 212.839,601.784C213.489,601.228 214.803,600.917 215.607,601.161C220.167,602.541 224.699,604.036 229.177,605.667C232.763,606.973 236.216,609.576 239.806,609.724C245.002,609.939 248.717,612.349 252.573,615.059C252.972,615.34 253.367,615.696 253.819,615.826C260.634,617.779 267.45,619.728 274.291,621.586C274.914,621.755 275.71,621.288 277.762,620.796C270.191,615.708 264.098,610.626 256.346,607.8C252.704,606.472 249.576,603.713 246.247,601.554C240.822,598.036 235.224,594.741 230.074,590.855C225.7,587.556 220.993,584.116 218.095,579.658C216.296,576.891 216.972,571.99 217.678,568.263C218.405,564.416 220.318,560.732 222.107,557.175C222.933,555.532 225.043,554.561 225.977,552.942C229.659,546.563 234.609,540.404 236.243,533.49C238.12,525.546 243.197,519.639 246.053,512.465C247.257,509.442 249.548,506.868 250.978,503.912C251.753,502.309 251.368,500.133 252.178,498.561C255.341,492.42 258.838,486.453 262.06,480.341C262.927,478.696 263.026,476.651 263.875,474.993C267.543,467.829 271.307,460.712 275.153,453.641C276.282,451.565 277.857,449.736 279.119,447.724C282.601,442.173 285.699,436.347 289.557,431.076C294.05,424.939 299.336,419.389 304.01,413.376C309.812,405.911 315.132,398.064 321.09,390.732C323.402,387.887 327.059,386.182 329.811,383.642C337.629,376.424 345.066,368.777 353.109,361.826C357.868,357.713 363.358,354.385 368.75,351.082C378.084,345.364 387.238,339.15 397.152,334.652C404.6,331.273 411.007,325.91 419.755,324.549C426.311,323.528 432.445,319.174 438.525,315.86C446.283,311.632 453.955,307.578 462.438,304.631C471.668,301.425 481.323,300.095 490.423,296.734C497.624,294.075 504.714,291.117 511.862,288.311C512.316,288.133 512.841,288.04 513.329,288.054C520.252,288.25 526.36,285.794 532.17,282.332C532.446,282.168 532.795,282.021 533.105,282.032C538.399,282.223 543.245,280.975 548.386,279.399C555.277,277.287 562.974,277.953 570.253,276.916C576.007,276.096 581.643,274.466 587.348,273.275C591.336,272.443 595.452,272.077 599.33,270.906C604.36,269.386 609.195,267.229 614.15,265.449C615.201,265.072 616.408,265.109 617.548,265.004C620.665,264.716 624.212,266.186 626.473,262.438C626.838,261.834 628.65,262.049 629.799,261.982C632.788,261.807 636.204,263.084 638.128,259.411C638.248,259.181 638.695,259.059 639.01,259.005C644.798,258.016 650.604,257.122 656.374,256.041C659.84,255.392 663.243,254.415 666.691,253.662C670.966,252.729 675.33,252.128 679.523,250.923C684.667,249.445 689.676,247.494 694.737,245.731C695.034,245.628 695.259,245.266 695.553,245.211C701.348,244.124 707.204,243.298 712.932,241.936C718.799,240.541 724.543,238.631 730.334,236.925C730.635,236.837 730.882,236.378 731.146,236.385C737.233,236.559 742.85,234.626 748.651,233.101C754.966,231.441 761.657,231.189 768.192,230.394C773.566,229.739 778.949,229.139 784.34,228.655C784.971,228.598 785.696,229.41 786.355,229.853C791.27,233.153 796.338,236.254 801.043,239.832C804.995,242.838 808.494,246.435 812.26,249.694C812.961,250.302 814.054,251.027 814.826,250.892C821.281,249.765 823.957,254.661 827.193,258.544C830.694,262.747 835.603,263.02 840.167,260.268C842.328,258.964 846.198,258.634 848.454,259.678C856.971,263.621 865.695,263.061 872.543,257.151C879.65,251.017 886.923,245.054 893.756,238.625C903.643,229.323 912.902,219.337 923.008,210.29C928.974,204.948 935.801,200.424 942.704,196.307C951.773,190.897 961.844,187.693 971.924,184.548C979.072,182.319 985.783,178.497 993.021,176.815C998.518,175.537 1003.34,171.54 1009.61,172.813C1011.5,173.197 1013.81,171.322 1015.98,170.633C1017.19,170.248 1018.5,170.106 1019.77,169.971C1024.86,169.434 1030.09,171.267 1035.03,167.461C1037.05,165.902 1041.16,167.085 1044.32,166.958C1048.17,166.803 1052.24,168.035 1055.48,164.381C1056.25,163.517 1058.65,164.104 1061.1,164.23C1061.98,164.238 1062.84,164.246 1063.7,164.252C1072.59,164.103 1081.8,164.071 1091.4,164.09C1086.67,164.167 1081.82,164.229 1076.88,164.266C1081.93,164.244 1086.89,164.196 1091.85,164.149C1096.18,164.107 1100.53,163.805 1104.82,164.149C1106.58,164.29 1109.58,165.721 1109.66,166.747C1109.86,169.39 1109.63,173.03 1107.98,174.652C1104.51,178.064 1099.79,180.165 1096.01,183.308C1091.43,187.107 1087.36,191.515 1082.92,195.488C1080.26,197.868 1077.05,199.662 1074.56,202.186C1071.6,205.181 1069.02,208.581 1066.51,211.979C1062.51,217.386 1058.79,222.986 1054.81,228.409C1052.18,232.008 1048.95,235.221 1046.66,239.009C1044.35,242.819 1042.73,247.075 1041.06,251.235C1039.61,254.826 1038.86,258.732 1037.17,262.187C1034.22,268.214 1033.63,273.729 1037.52,279.741C1041.07,285.23 1043.36,291.551 1047.04,296.925C1048.7,299.341 1052.56,301.929 1055.17,301.694C1062.95,300.992 1066.43,305.651 1070.1,310.949C1071.07,312.352 1073.07,313.056 1074.64,314.022C1075.68,314.663 1076.74,315.295 1077.86,315.766C1081.08,317.119 1083.48,320.281 1087.85,319.095C1091.51,318.102 1097.76,322.461 1099.05,326.036C1101.42,332.661 1107.57,336.892 1114.77,337.005C1116.37,337.03 1118.54,336.943 1119.45,337.881C1122.55,341.065 1125.09,339.972 1127.78,337.085C1128.23,337.359 1128.67,337.633 1129.12,337.908C1128.79,339.37 1128.47,340.833 1128.08,342.593C1129.14,343.924 1130.95,345.825 1132.31,348.001C1134.48,351.454 1137.4,353.101 1141.4,354.174C1149.42,356.325 1156.42,360.555 1161.37,367.479C1162.16,368.588 1162.12,370.298 1162.35,371.267C1171.43,374.994 1181.86,373.774 1188.84,382.888C1193.14,388.516 1200.55,390.513 1207.71,392.212C1211.66,393.15 1215.06,396.335 1218.75,398.428C1222.2,400.383 1225.02,403.346 1229.68,403.186C1231.73,403.116 1234.58,405.036 1235.83,406.888C1239.57,412.453 1245.8,416.343 1251.01,416.32C1259.98,416.281 1261.96,424.62 1268.3,427.118C1270.91,428.144 1273.01,430.411 1275.6,431.513C1279.09,432.997 1282.83,433.871 1286.45,435.06C1293.42,437.353 1300.39,439.678 1307.35,442.012C1307.96,442.217 1308.52,442.848 1309.1,442.846C1318.61,442.818 1328,443.176 1337.33,445.74C1340.2,446.529 1344.33,444.896 1347.19,443.202C1359.89,435.688 1370.66,425.618 1380.25,414.637C1388.37,405.346 1394.61,394.445 1402.13,384.595C1407.14,378.018 1413.18,372.228 1418.32,365.735C1424.47,357.965 1430.15,349.82 1436.04,341.841C1436.42,341.32 1436.74,340.594 1437.27,340.358C1447.79,335.649 1454.09,326.111 1462.06,318.519C1466.17,314.602 1469.53,309.896 1473.27,305.583C1473.67,305.116 1474.32,304.787 1474.91,304.567C1481.91,301.982 1489.22,300.036 1495.85,296.715C1503.79,292.735 1511.14,287.586 1518.76,282.954C1519.31,282.618 1519.88,282.243 1520.5,282.091C1531.57,279.342 1542.67,276.679 1553.74,273.861C1556.51,273.155 1559.1,271.524 1561.89,271.167C1563.71,270.933 1567.23,271.999 1567.37,272.882C1567.81,275.793 1568.08,279.568 1566.59,281.793C1559.74,292.035 1552.22,301.823 1545.05,311.853C1539.59,319.496 1534.14,327.156 1528.99,335.009C1526.23,339.219 1524.22,343.913 1521.68,348.28C1518.93,353.023 1515.93,357.624 1513.09,362.315C1507.63,371.315 1502.24,380.357 1496.74,389.329C1495.29,391.696 1493.72,394.047 1491.87,396.099C1485.96,402.638 1484.6,411.061 1482.02,418.993C1481.02,422.088 1480.45,425.493 1478.75,428.161C1474.81,434.34 1475.7,441.67 1473.5,447.939C1470.67,455.987 1471.7,463.827 1470.88,471.745C1470.57,474.821 1468.92,477.746 1468.04,480.786C1467.78,481.697 1467.65,483.186 1468.16,483.698C1473.08,488.581 1470.14,494.705 1471,500.207C1471.55,503.712 1472.45,507.16 1473.15,510.642C1473.51,512.409 1474.07,514.207 1474.01,515.972C1473.76,523.128 1475.22,529.71 1478.5,536.195C1480.52,540.194 1480.75,545.072 1482.08,549.465C1482.8,551.836 1483.92,554.156 1485.24,556.259C1490.28,564.275 1495.63,572.095 1500.54,580.183C1503.38,584.844 1505.54,589.904 1508.11,594.732C1509.06,596.512 1510.29,598.138 1511.39,599.84C1515.99,606.986 1520.66,614.084 1525.16,621.296C1529.3,627.935 1533.07,634.809 1537.32,641.368C1540.32,645.975 1543.78,650.285 1547.18,654.609C1548.43,656.188 1550.11,657.42 1552.43,659.596C1554.1,662.709 1556.22,667.13 1558.78,671.283C1561.59,675.849 1565.14,679.978 1567.72,684.659C1569.67,688.205 1567.41,690.669 1563.22,691.011C1555.01,691.683 1547.6,689.527 1540.58,685.473C1539.91,685.088 1538.96,685.233 1538.17,685.027C1530.67,683.082 1522.77,682.032 1515.8,678.909C1508,675.417 1501.17,669.837 1493.69,665.564C1489.71,663.287 1485.18,661.98 1481.02,659.976C1479.09,659.044 1477.36,657.602 1475.69,656.207C1469.06,650.65 1462.24,645.281 1455.94,639.359C1446.38,630.375 1435.77,621.984 1428.41,611.395C1424.07,605.164 1418.66,599.989 1413.97,594.359C1408.35,587.606 1404.48,579.752 1398.48,573.241C1390.18,564.255 1383.39,553.903 1375.78,544.269C1373.7,541.63 1371.06,539.417 1368.59,537.098C1364.68,533.417 1360.51,529.986 1356.78,526.134C1350.94,520.115 1344.89,516.602 1335.73,518.579C1328.92,520.05 1321.55,519.157 1314.43,518.952C1307,518.738 1301.33,522.288 1295.83,526.612C1290.83,530.534 1285.81,534.438 1280.52,537.944C1278.92,539.009 1276.41,539.028 1274.33,538.993C1270.09,538.922 1267.47,540.915 1264.93,544.21C1261.59,548.537 1257.62,552.432 1253.6,556.159C1251.28,558.304 1248.39,561.027 1245.63,561.177C1242.4,561.353 1242.74,563.253 1241.54,564.786C1237.74,569.668 1234.32,574.482 1227.36,576.432C1221.09,578.188 1215.67,582.839 1211.96,588.904C1210.84,590.732 1208.05,593.11 1206.48,592.813C1200.07,591.598 1196.68,595.913 1193.45,599.584C1188.85,604.809 1183.74,608.643 1177.02,610.48C1173.42,611.463 1168.23,619.028 1168.19,622.948C1167.16,623.122 1165.97,623.048 1165.06,623.521C1160.28,626.02 1155.52,628.568 1150.87,631.308C1149.68,632.007 1148.94,633.472 1147.99,634.575C1143.61,639.64 1139.28,644.744 1134.8,649.719C1134.14,650.452 1132.73,651.014 1131.77,650.891C1127.64,650.36 1125.64,652.69 1123.38,655.712C1119.8,660.513 1117.02,665.947 1111.01,668.95C1108.73,670.091 1107.44,674.834 1107.18,678.055C1106.62,685.009 1106.28,692.147 1107.29,698.999C1107.88,703.035 1111.38,706.592 1113.29,710.501C1115.37,714.758 1118.78,719.215 1118.66,723.508C1118.48,730.617 1122.38,735.389 1125.92,740.051C1130.4,745.959 1134.81,751.268 1136.51,758.983C1137.48,763.397 1141.55,767.931 1145.44,770.686C1149.72,773.72 1147.5,777.154 1147.69,780.328C1147.74,781.122 1144.32,782.902 1142.5,782.888C1136.33,782.84 1129.79,784.548 1124.23,780.182C1124.01,780.007 1123.58,780.082 1123.26,780.041C1115.15,779.045 1106.41,779.626 1099.1,776.672C1088.94,772.566 1077.62,775.347 1067.84,769.435C1063.43,766.77 1057.09,767.521 1051.88,765.9C1043.93,763.425 1036.22,760.187 1028.37,757.375C1025.21,756.24 1021.89,755.534 1018.74,754.347C1013.61,752.408 1008.67,749.854 1003.44,748.261C997.075,746.322 991.85,742.083 986.295,738.999C978.212,734.511 970.324,729.657 961.862,725.744C958.21,724.055 955.173,721.081 951.699,718.949C946.926,716.02 942.114,713.177 936.057,713.893C933.098,714.242 930.063,713.903 927.065,713.965C923.221,714.045 919.202,713.08 915.947,716.414C915.23,717.148 913.431,716.955 912.128,716.966C906.963,717.01 901.788,716.776 896.633,717.007C891.566,717.234 886.615,716.276 881.508,719.404C878.332,721.349 873.08,719.902 867.92,719.771C867.616,719.754 867.314,719.738 867.012,719.721C854.218,719.897 841.066,719.927 827.458,719.887C833.915,719.539 840.837,719.088 847.761,719.038Z" style="fill:rgb(104,131,139);"/>
        </g>
    </g>
</svg>
