<?xml version="1.0" encoding="UTF-8" standalone="no"?>
<!DOCTYPE svg PUBLIC "-//W3C//DTD SVG 1.1//EN" "http://www.w3.org/Graphics/SVG/1.1/DTD/svg11.dtd">
<svg width="100%" height="100%" viewBox="0 0 1510 866" version="1.1" xmlns="http://www.w3.org/2000/svg" xmlns:xlink="http://www.w3.org/1999/xlink" xml:space="preserve" xmlns:serif="http://www.serif.com/" style="fill-rule:evenodd;clip-rule:evenodd;stroke-linejoin:round;stroke-miterlimit:2;">
    <g transform="matrix(-1,0,0,1,1501.88,0)">
        <path d="M1155.06,209.016C1157.36,210.297 1159.72,211.482 1161.95,212.876C1170.11,217.969 1179.87,218.61 1188.36,222.356C1194.16,224.915 1199.07,230.069 1203.44,234.906C1204.51,236.087 1201.91,240.58 1200.8,244.178C1203.44,248.204 1198.26,261.748 1190.5,269.998C1191.89,271.975 1194.19,273.846 1194.38,275.907C1194.56,277.965 1191.99,280.146 1191.75,282.393C1191.26,286.941 1190.12,292.183 1191.8,296.027C1194.66,302.566 1191.08,306.815 1188.8,311.776C1188.61,312.198 1187.95,312.41 1187.76,312.833C1186.57,315.503 1184.07,317.088 1185.6,321.382C1187.46,326.579 1185.61,332.361 1182.45,337.611C1180.51,340.829 1177.76,344.224 1180.38,349.363C1183.03,354.577 1180.05,361.216 1172.42,365.757C1172.47,366.063 1172.41,366.475 1172.59,366.674C1178.75,373.554 1176.73,380.321 1167.7,382.952C1166.31,383.356 1163.99,383.251 1163.65,384.045C1162.45,386.857 1161.3,389.951 1161.27,392.95C1161.21,398.84 1159.44,401.142 1153.55,401.326C1149.68,401.448 1146.39,405.66 1147.07,409.467C1147.55,412.203 1147.85,414.972 1148.4,418.859C1151.21,419.642 1155.36,420.799 1159.5,421.948C1167.39,424.133 1175.24,426.479 1183.19,428.409C1186.03,429.098 1189.15,429.137 1192.08,428.829C1196.11,428.404 1200.1,427.401 1204.09,426.587C1213.87,424.597 1222.57,420.018 1231.28,415.391C1239.99,410.762 1249.05,406.745 1257.6,401.836C1270.96,394.16 1284.59,386.908 1296.37,376.645C1301.63,372.059 1308.06,368.803 1313.99,365.002C1323.38,358.987 1332.76,352.94 1342.24,347.065C1348.72,343.045 1355.4,339.344 1361.94,335.401C1365.94,332.984 1369.78,330.281 1373.79,327.88C1380.67,323.766 1387.5,319.537 1394.62,315.868C1397.74,314.258 1401.51,313.917 1404.98,312.975C1407.45,312.305 1410.34,312.194 1412.29,310.79C1419.02,305.956 1426.49,308.923 1433.57,308.192C1437.13,307.824 1440.91,307.368 1443.51,310.768C1444.5,312.067 1445.88,313.604 1445.89,315.041C1446.04,336.871 1446,358.703 1445.96,380.534C1445.95,381.651 1445.89,383.122 1445.22,383.826C1440.29,389.008 1441.12,395.772 1440.1,401.98C1438.85,409.552 1437.99,417.188 1436.89,424.785C1436.78,425.519 1436.24,426.281 1435.71,426.847C1432.55,430.193 1431.69,434.133 1431.9,438.655C1431.99,440.593 1430.54,442.555 1430.12,444.575C1429.3,448.526 1428.91,452.577 1427.94,456.483C1427.44,458.454 1425.72,460.099 1425.12,462.065C1422.94,469.294 1417.29,475.557 1418.94,483.867C1419.01,484.188 1419.1,484.714 1418.94,484.838C1413.1,489.338 1414.7,496.37 1413,502.267C1412.81,502.93 1412.74,503.709 1412.88,504.377C1413.96,509.421 1416.26,514.454 1410.66,518.729C1409.56,519.572 1409.64,522.989 1410.25,524.866C1411.75,529.441 1413.91,533.797 1415.73,538.273C1416.03,539.011 1416.09,539.921 1416.01,540.728C1415.26,548.623 1418.48,555.577 1420.75,562.856C1423.1,570.393 1424.29,578.295 1425.95,586.044C1427.21,591.908 1429.42,597.786 1429.39,603.65C1429.37,610.202 1431.97,616.136 1430.77,623.289C1429.04,633.574 1429.13,644.493 1431.37,655.323C1432.85,662.51 1434.87,670.621 1430.64,678.105C1429.99,679.255 1430.23,680.995 1430.3,682.452C1430.81,693.486 1431.72,704.519 1431.68,715.549C1431.66,718.465 1429.39,721.234 1429.43,724.888C1429.48,729.34 1425.55,731.115 1420.62,729.649C1416.21,728.339 1411.94,726.503 1407.68,724.74C1401.46,722.168 1395.16,719.733 1389.15,716.731C1381.79,713.053 1374.55,709.082 1367.52,704.794C1362.46,701.702 1357.83,697.893 1353.02,694.389C1345.99,689.262 1338.86,684.252 1331.96,678.94C1327.6,675.575 1323.66,671.662 1319.39,668.158C1315.45,664.916 1311.32,661.901 1307.28,658.765C1306.63,658.258 1306.08,657.619 1305.46,657.075C1293.64,646.78 1281.77,636.546 1270.02,626.167C1265.9,622.523 1262.3,618.266 1258.07,614.775C1255.11,612.338 1251.43,610.788 1248.14,608.739C1237.16,601.904 1226.67,594.072 1215.11,588.452C1205.28,583.677 1195.38,578.091 1183.42,578.804C1176.18,579.236 1168.8,576.943 1161.5,577.049C1147.67,577.25 1133.86,578.188 1120.05,579.041C1113.83,579.425 1107.61,580.11 1101.46,581.103C1098.11,581.642 1094.96,583.787 1091.64,584.02C1084.81,584.499 1078.27,586.088 1071.66,587.652C1069.07,588.266 1066.2,587.753 1063.17,587.753C1063.34,588.441 1063.3,589.275 1063.66,589.543C1067.01,591.99 1070.48,594.258 1073.8,596.733C1079.34,600.862 1084.8,605.105 1090.29,609.301C1096.18,613.804 1101.45,618.47 1101.24,627.013C1101.16,630.253 1103.34,633.484 1103.97,636.817C1105.76,646.201 1107.01,655.692 1109.01,665.026C1109.91,669.208 1112.17,673.084 1113.67,677.153C1115.84,683.026 1117.85,688.957 1119.97,694.846C1123.02,703.287 1125.45,712.026 1129.32,720.073C1135.91,733.782 1143.45,746.952 1147.47,761.877C1148.79,766.782 1152.34,771.149 1152.04,776.726C1151.81,781.06 1148.6,782.887 1144.38,782.758C1132.16,782.386 1119.91,782.97 1107.7,782.462C1103.89,782.304 1100.02,780.181 1096.44,778.411C1088.47,774.464 1079.85,771.617 1074.34,763.617C1072.83,761.422 1068.22,761.614 1065.91,759.665C1058.46,753.365 1048.39,752.51 1040.68,746.907C1037.65,744.709 1034.55,742.606 1031.65,740.25C1028.49,737.677 1025.53,734.861 1022.32,732.012C1018.83,734.151 1015.88,735.061 1012.35,731.545C1010.26,729.453 1006.3,729.332 1003.33,727.993C993.89,723.74 984.555,719.263 975.091,715.076C973.968,714.579 972.29,715.457 970.863,715.502C968.279,715.583 965.367,716.292 963.161,715.373C954.644,711.826 946.315,707.816 937.986,703.832C929.023,699.545 920.001,695.351 911.256,690.65C899.476,684.32 887.988,677.448 876.252,671.032C873.626,669.597 870.45,669.205 867.602,668.133C861.736,665.925 856.089,662.499 850.042,661.55C840.971,660.127 834.008,652.072 824.135,653.899C807.121,646.898 789.311,650.612 771.851,650.368C764.935,650.271 757.986,652.667 751.045,653.893C750.235,654.036 749.385,653.977 748.554,653.984C724.89,654.197 701.227,654.402 677.564,654.641C676.966,654.647 676.372,655.021 675.167,655.43C677.406,657.073 679.209,658.372 680.987,659.705C691.409,667.52 701.761,675.433 712.28,683.116C716.009,685.839 720.159,687.982 724.075,690.456C724.841,690.94 726.035,691.777 725.986,692.363C725.493,698.218 725.152,704.138 723.872,709.838C723.551,711.269 719.773,713.162 718.001,712.799C712.409,711.655 707.034,709.482 701.54,707.822C697.047,706.465 692.493,705.311 687.987,703.994C684.179,702.882 680.453,701.437 676.594,700.569C673.734,699.926 670.696,699.602 667.776,699.776C657.693,700.378 648.097,700.232 638.491,695.43C631.861,692.115 623.655,692.111 616.379,689.889C607.793,687.268 599.336,684.127 591.033,680.703C582.313,677.106 573.771,673.05 565.279,668.929C556.471,664.655 547.943,659.791 539.063,655.682C529.237,651.135 518.708,647.93 509.357,642.609C504.298,639.73 499.663,640.714 494.806,639.999C487.466,638.919 480.181,637.469 472.872,636.179C472.544,636.121 472.212,636.084 471.88,636.06C462.699,635.38 453.47,635.078 444.354,633.902C437.452,633.011 430.699,630.985 423.872,629.5C419.879,628.631 415.874,627.818 411.869,627.005C403.939,625.394 396.019,623.727 388.068,622.229C383.438,621.356 378.704,621.001 374.108,619.996C365.026,618.011 356.013,615.714 346.961,613.589C342.427,612.525 337.837,611.684 333.337,610.497C330.663,609.791 327.9,608.97 325.549,607.575C317.106,602.564 306.917,603.208 298.312,598.924C293.69,596.623 289.261,593.935 284.752,591.409C284.048,591.015 283.406,590.226 282.694,590.175C273.547,589.509 266.623,583.522 258.57,580.268C249.376,576.554 239.964,573.383 230.655,569.952C225.25,567.96 219.958,565.596 214.447,563.971C204.699,561.096 194.852,558.543 184.993,556.069C176.586,553.959 168.127,552.04 159.645,550.262C156.271,549.554 152.682,549.815 149.349,548.995C143.222,547.49 137.191,545.577 131.158,543.714C122.976,541.187 114.738,538.801 106.703,535.864C101.734,534.047 97.007,531.489 92.335,528.962C83.737,524.311 73.625,521.764 67.767,513.126C64.333,508.062 58.794,503.692 60.161,496.415C60.467,494.787 60.941,492.843 62.045,491.774C66.83,487.138 71.645,482.462 76.952,478.471C78.881,477.021 82.201,477.209 84.909,477.058C88.776,476.843 92.663,477.003 96.542,477.003L96.878,475.618C90.329,469.797 83.792,463.962 77.228,458.157C71.147,452.78 64.495,447.911 59.188,441.86C56.769,439.102 56.621,434.08 56.106,430.002C55.557,425.657 55.642,421.453 61.333,419.626C63.02,419.084 64.047,415.819 64.945,413.626C67.148,408.242 69.591,403.187 76.192,401.223C73.641,392.191 82.076,389.593 86.583,384.889C91.91,379.328 98.637,375.136 104.254,369.818C115.912,358.78 127.53,347.669 138.578,336.031C144.328,329.974 149.313,323.111 154.578,316.596C166.292,302.098 178.587,288.227 191.505,274.792C201.626,264.266 210.461,252.509 219.972,241.387C222.505,238.425 225.614,235.951 228.124,232.971C233.389,226.721 238.215,220.092 243.629,213.981C248.371,208.629 253.458,203.536 258.77,198.748C268.985,189.539 279.42,180.571 289.858,171.614C295.453,166.813 301.036,161.954 307.007,157.652C312.613,153.613 318.78,150.363 324.579,146.58C326.821,145.118 328.476,142.587 330.839,141.513C337.758,138.367 344.936,135.798 351.927,132.805C354.031,131.905 355.737,130.089 357.833,129.159C362.1,127.266 366.467,125.578 370.866,124.008C378.454,121.299 386.085,118.707 393.726,116.15C396.263,115.301 398.904,114.766 401.469,113.992C410.287,111.332 419.09,108.626 427.901,105.946C436.41,103.358 444.893,100.676 453.45,98.257C456.407,97.42 459.561,97.299 462.61,96.763C471.623,95.179 480.712,93.913 489.608,91.827C496.773,90.147 503.687,87.411 510.747,85.256C511.981,84.879 513.386,84.994 514.712,84.994C569.54,84.982 624.369,85.036 679.197,84.896C684.21,84.883 687.168,87.843 690.158,90.77C692.629,93.189 695.119,93.979 698.52,94.105C704.869,94.341 711.194,95.294 717.519,96.031C718.257,96.117 719.163,96.545 719.604,97.114C723.135,101.667 728.599,101.611 733.432,103.057C735.933,103.805 738.409,104.668 740.946,105.264C745.213,106.265 749.557,106.951 753.801,108.033C758.722,109.288 763.92,108.963 768.139,113.376C770.91,116.274 775.748,117.3 779.775,118.869C786.286,121.407 792.978,123.503 799.397,126.246C800.928,126.9 801.338,129.923 802.873,130.881C805.461,132.495 808.488,133.469 811.415,134.464C820.964,137.711 830.529,140.917 840.131,144.004C850.078,147.202 860.217,149.864 869.981,153.533C874.053,155.064 877.239,158.818 881.087,161.129C883.397,162.516 886.144,163.457 888.81,163.899C892.097,164.445 894.796,165.057 897.587,167.534C900.08,169.746 904.383,169.923 907.892,170.985C914.839,173.088 922.057,173.831 928.428,178.343C932.455,181.195 938.227,181.67 943.278,182.969C948.941,184.424 954.677,185.591 960.372,186.924C961.151,187.106 962.158,187.305 962.581,187.86C966.572,193.109 972.259,191.903 977.61,191.917C989.275,191.95 1000.94,191.859 1012.61,191.98C1016.07,192.016 1019.89,190.878 1022.66,194.527C1023.2,195.24 1025.18,194.962 1026.5,194.972C1031.66,195.009 1036.87,194.55 1041.98,195.091C1047.27,195.652 1052.43,197.257 1057.68,198.225C1063.28,199.257 1068.89,200.567 1074.55,200.888C1086.16,201.546 1097.8,201.585 1109.43,201.962C1114.66,202.132 1116.64,205.81 1117.77,210.928C1119.64,209.971 1121.15,209.194 1123.3,208.499C1134.32,208.726 1144.69,208.871 1155.06,209.016ZM1154.82,208.648C1144.69,208.871 1134.32,208.726 1123.61,208.362C1133.72,208.188 1144.15,208.234 1154.82,208.648Z" style="fill:rgb(140,137,111);"/>
    </g>
</svg>
