<?xml version="1.0" encoding="UTF-8" standalone="no"?>
<!DOCTYPE svg PUBLIC "-//W3C//DTD SVG 1.1//EN" "http://www.w3.org/Graphics/SVG/1.1/DTD/svg11.dtd">
<svg width="100%" height="100%" viewBox="0 0 796 397" version="1.1" xmlns="http://www.w3.org/2000/svg" xmlns:xlink="http://www.w3.org/1999/xlink" xml:space="preserve" xmlns:serif="http://www.serif.com/" style="fill-rule:evenodd;clip-rule:evenodd;stroke-linejoin:round;stroke-miterlimit:2;">
    <g transform="matrix(-1,0,0,1,895.579,0)">
        <path d="M363.01,281.749C357.633,281.763 352.338,281.799 347.042,281.835C348.122,282.857 349.595,284.959 350.221,284.731C355.458,282.828 359.717,285.887 364.396,286.923C375.266,289.33 378.841,293.047 378.927,304.063C378.993,312.678 378.173,321.297 378.139,329.917C378.115,335.86 378.756,341.807 379.114,347.751C379.133,348.072 379.183,348.544 379.391,348.678C385.836,352.835 382.246,357.277 380.212,362.132C378.047,367.3 381.005,371.84 383.674,376.137C384.503,377.472 385.53,378.684 386.734,380.316C379.822,382.668 376.144,377.507 372.544,374.695C363.821,367.882 355.931,359.978 347.903,352.306C337.814,342.665 330.119,331.216 323.623,318.937C318.277,308.83 313.038,298.667 307.693,288.56C305.561,284.528 301.875,283.453 297.559,282.969C280.866,281.098 264.135,279.381 247.552,276.762C237.7,275.206 227.839,272.802 218.446,269.47C205.589,264.911 193.201,259.039 180.559,253.859C169.004,249.125 157.129,245.088 145.867,239.75C137.485,235.776 129.582,230.599 122.001,225.206C117.864,222.264 119.288,214.594 123.652,212.069C119.278,205.381 120.556,200.029 126.495,191.633C132.541,183.085 137.501,173.773 143.115,164.909C144.418,162.851 146.343,161.142 148.155,159.46C156.035,152.143 163.69,144.545 171.967,137.704C184.196,127.597 196.3,117.153 209.539,108.509C222.797,99.852 235.311,89.737 251.331,85.494C264.438,82.023 276.955,76.367 289.849,72.019C294.41,70.481 295.603,67.012 297.037,63.192C298.843,58.385 301.049,53.729 303.082,49.008L304.865,48.985C305.456,49.94 306.048,50.896 306.645,51.86L325.543,29.199C327.327,31.198 328.555,32.573 330.062,34.262C332.528,31.537 335.062,28.331 338.036,25.606C339.714,24.069 342.396,22.148 344.111,22.557C345.755,22.95 346.735,26.128 348.533,28.889C355.082,25.295 359.203,17.939 366.27,12.896C367.561,14.436 369.264,15.816 370.1,17.601C371.764,21.149 374.272,22.482 378.059,22.029C382.438,21.504 386.154,22.14 388.533,26.729C389.972,29.504 396.484,29.984 399.358,28.09C399.63,27.91 399.803,27.582 400.074,27.397C402.5,25.741 404.937,24.102 407.371,22.458C408.732,24.946 409.86,27.606 411.52,29.876C413.214,32.192 415.432,34.124 417.515,36.324C421.447,33.378 424.934,30.905 428.258,28.229C430.649,26.305 432.089,26.881 433.195,29.506C434.09,31.627 435.029,33.731 436.016,35.811C438.091,40.184 442.427,41.437 446.578,38.814C448.515,37.589 450.345,36.193 452.215,34.862C455.215,32.726 457.374,32.966 459.289,36.536C462.205,41.974 468.838,43.795 474.374,41.363C477.342,40.058 479.684,37.508 483.067,42.705C485.453,46.372 491.888,48.175 497.607,46.821C498.822,46.533 501.103,46.658 501.425,47.314C505.5,55.6 512.639,53.511 518.548,51.506C524.448,49.503 530.11,49.768 535.926,50.099C537.415,50.184 539.186,51.352 540.203,52.552C543.094,55.967 545.825,57.661 550.882,56.421C554.582,55.514 558.826,56.789 561.384,61.358C564.712,67.3 571.464,65.919 576.962,66.936C579.821,67.464 582.79,67.392 585.074,67.547C585.074,70.363 584.387,73.729 585.209,74.15C587.297,75.22 590.057,75.026 592.555,75.24C596.813,75.604 602.231,74.408 605.044,76.593C608.495,79.274 609.999,84.658 611.869,89.074C612.584,90.762 611.986,93.006 611.986,95.384C617.501,95.747 618.489,99.189 618.037,103.681C617.889,105.155 617.536,107.094 618.269,108.097C624.747,116.962 618.12,121.903 612.788,127.281C612.564,127.507 612.237,127.771 612.216,128.038C611.303,139.727 601.312,136.777 594.541,138.979C593.615,139.28 592.142,138.866 591.668,139.421C589.207,142.298 586.675,142.781 583.47,140.636C582.963,140.297 581.677,141.123 579.436,141.819C583.578,143.431 586.493,144.694 589.491,145.709C600.197,149.331 610.499,154.824 622.268,153.932C632.988,153.119 642.988,149.443 652.676,145.02C667.625,138.195 682.576,131.361 697.324,124.12C703.618,121.03 709.132,116.324 715.474,113.368C730.65,106.292 745.153,97.381 762.191,94.985C764.139,94.71 766.03,94.041 767.974,93.723C773.219,92.864 777.423,97.72 775.617,102.705C774.782,105.006 773.615,107.279 772.172,109.252C766.113,117.535 759.388,125.377 753.893,134.009C749.5,140.908 746.657,148.778 742.891,156.096C740.274,161.181 736.538,165.795 734.585,171.092C731.432,179.646 726.855,187.18 721.57,194.484C720.566,195.873 720.888,198.818 721.551,200.712C724.125,208.06 727.385,215.174 729.814,222.565C732.202,229.834 733.462,237.483 735.991,244.694C739.637,255.088 743.911,265.265 748.058,275.478C750.12,280.555 752.569,285.474 754.702,290.524C756.044,293.702 753.58,298.137 749.386,298.446C744.764,298.787 739.475,298.788 735.455,296.878C725.108,291.962 714.713,286.915 706.12,278.941C698.284,271.669 690.211,264.647 682.115,257.663C676.25,252.604 670.219,247.735 664.186,242.876C656.484,236.673 649.072,230.011 640.857,224.574C632.764,219.217 623.993,215.008 613.556,215.907C605.69,216.585 597.603,215.059 590.076,218.638C588.928,219.184 587.783,219.738 586.637,220.288L586.998,221.524C590.74,220.64 594.617,220.113 598.185,218.766C601.332,217.577 603.334,218.399 604.876,220.932C608.364,226.661 612.885,231.979 613.224,239.087C613.299,240.649 612.175,242.267 611.489,244.178C616.224,252.85 610.365,271.853 598.356,273.505C598.23,277.703 597.223,281.093 591.946,281.211C590.625,281.241 588.846,282.134 588.102,283.204C582.996,290.552 575.402,288.818 568.267,289.059C565.887,289.139 563.222,289.339 561.225,290.451C557.268,292.653 557.373,295.338 560.963,297.982C562.235,298.918 563.435,299.951 564.668,300.94C564.505,301.545 564.343,302.15 564.18,302.754C560.233,302.169 556.273,301.657 552.342,300.979C548.276,300.277 544.237,299.413 540.186,298.62C540.045,299.053 539.905,299.486 539.765,299.92L545.98,305.471C541.712,309.497 537.786,307.215 533.79,306.002C528.947,304.533 524.084,302.944 519.111,302.145C515.142,301.507 510.678,301.049 508.402,306.595C501.795,302.577 495.864,298.482 489.45,295.385C487.668,294.524 484.477,296.702 481.895,297.332C480.414,297.694 478.503,298.411 477.399,297.82C473.677,295.83 470.23,293.325 466.698,291.03C465.942,293.274 465.198,295.48 463.964,299.141C459.094,293.558 454.79,289.262 451.27,284.398C448.129,280.058 443.567,278.574 435.241,280.361C429.156,281.667 423.065,283.452 416.909,283.791C409.337,284.208 401.691,283.402 394.083,283.009C390.307,282.814 386.545,282.361 381.969,281.814C380.467,281.798 378.978,281.785 377.499,281.774C367.824,281.887 357.842,281.914 347.505,281.895C352.576,281.832 357.747,281.781 363.01,281.749Z" style="fill:rgb(140,95,100);"/>
    </g>
</svg>
